<?xml version="1.0" encoding="UTF-8" standalone="no" ?>
<svg width="15px" height="15px" viewBox="0 0 15 15" version="1.1" xmlns="http://www.w3.org/2000/svg" xmlns:xlink="http://www.w3.org/1999/xlink">
    <g id="Page-1" stroke="none" stroke-width="1" fill="none" fill-rule="evenodd">
        <g id="Chat" transform="translate(-326.000000, -65.000000)" fill="currentColor">
            <g id="noun_scan_2388419" transform="translate(326.000000, 65.000000)">
                <g id="Group">
                    <path d="M1.408,3.52 L0,3.52 L0,0 L3.52,0 L3.52,1.408 L1.408,1.408 L1.408,3.52 Z M14.08,3.52 L12.672,3.52 L12.672,1.408 L10.56,1.408 L10.56,0 L14.08,0 L14.08,3.52 Z M3.52,14.08 L0,14.08 L0,10.56 L1.408,10.56 L1.408,12.672 L3.52,12.672 L3.52,14.08 Z M14.08,14.08 L10.56,14.08 L10.56,12.672 L12.672,12.672 L12.672,10.56 L14.08,10.56 L14.08,14.08 Z" id="Shape" fill-rule="nonzero"></path>
                    <g id="Group-2" transform="translate(4.000000, 4.000000)">
                        <rect id="Rectangle" x="0" y="2.31" width="5.61" height="1.32" rx="0.66"></rect>
                        <rect id="Rectangle" transform="translate(2.805000, 2.970000) rotate(-90.000000) translate(-2.805000, -2.970000) " x="0" y="2.31" width="5.61" height="1.32" rx="0.66"></rect>
                    </g>
                </g>
            </g>
        </g>
    </g>
</svg>