<?xml version="1.0" encoding="UTF-8" standalone="no" ?>
<svg width="19px" height="17px" viewBox="0 0 19 17" version="1.1" xmlns="http://www.w3.org/2000/svg" xmlns:xlink="http://www.w3.org/1999/xlink">
    <g id="Page-1" stroke="none" stroke-width="1" fill="none" fill-rule="evenodd">
        <g id="Chat2" transform="translate(-27.000000, -36.000000)" fill="currentColor" fill-rule="nonzero">
            <g id="noun_Arrow_18124" transform="translate(36.500000, 44.000000) rotate(-90.000000) translate(-36.500000, -44.000000) translate(28.000000, 35.000000)">
                <path d="M0.39095,8.89952 C0.85162,9.35998 1.59852,9.35998 2.05912,8.89952 L6.91901,4.0397 L6.91901,16.80917 C6.91901,17.46073 7.44723,17.98881 8.09858,17.98881 C8.75007,17.98881 9.27815,17.46073 9.27815,16.80917 L9.27815,4.03431 L14.24892,9.00501 C14.70952,9.46547 15.45649,9.46547 15.91709,9.00501 C16.37769,8.54427 16.37769,7.79751 15.91709,7.33691 L9.15432,0.57428 C9.11939,0.53935 9.08222,0.50778 9.04421,0.47831 C8.82952,0.18949 8.48631,0.00154 8.09865,0.00154 C7.72296,0.00154 7.38892,0.17787 7.17297,0.45164 C7.16653,0.45759 7.15995,0.46284 7.15372,0.46907 L0.39095,7.2317 C-0.06944,7.69195 -0.06944,8.43899 0.39095,8.89952 Z" id="Path"></path>
            </g>
        </g>
    </g>
</svg>