<?xml version="1.0" encoding="UTF-8" standalone="no" ?>
<svg width="12px" height="13px" viewBox="0 0 12 13" version="1.1" xmlns="http://www.w3.org/2000/svg" xmlns:xlink="http://www.w3.org/1999/xlink">
    <g id="Page-1" stroke="none" stroke-width="1" fill="none" fill-rule="evenodd">
        <g id="Chat1" transform="translate(-181.000000, -185.000000)" fill="currentColor" fill-rule="nonzero">
            <path d="M194.455158,190.775904 L189.643789,185.934596 C189.200421,185.488468 188.461474,185.488468 188.018105,185.934596 C187.574737,186.380723 187.574737,187.124269 188.018105,187.570396 L190.858947,190.445439 L180.349474,190.445439 C179.709053,190.445439 179.2,190.957659 179.2,191.602065 C179.2,192.246472 179.709053,192.758692 180.349474,192.758692 L190.858947,192.758692 L188.018105,195.617212 C187.574737,196.063339 187.574737,196.806885 188.018105,197.253012 C188.248,197.484337 188.543579,197.6 188.839158,197.6 C189.134737,197.6 189.430316,197.484337 189.660211,197.253012 L194.455158,192.428227 C194.668632,192.213425 194.8,191.916007 194.8,191.602065 C194.8,191.288124 194.685053,190.990706 194.455158,190.775904 Z" id="Path" transform="translate(187.000000, 191.600000) rotate(-45.000000) translate(-187.000000, -191.600000) "></path>
        </g>
    </g>
</svg>