<?xml version="1.0" encoding="UTF-8" standalone="no" ?>
<svg width="27px" height="27px" viewBox="0 0 27 27" version="1.1" xmlns="http://www.w3.org/2000/svg" xmlns:xlink="http://www.w3.org/1999/xlink">
    <g id="Page-1" stroke="none" stroke-width="1" fill="none" fill-rule="evenodd" stroke-linejoin="round">
        <g id="Wallet" transform="translate(-93.000000, -627.000000)" fill-rule="nonzero" stroke="currentColor" stroke-width="2.376">
            <path d="M96.5040377,646.370629 C96.409549,647.111414 96.295678,647.849777 96.1914982,648.588141 C96.0752045,649.428181 95.9589107,650.263379 95.8474625,651.151836 L96.0703589,651.137311 C97.5708714,650.929117 99.0721915,650.723343 100.574319,650.51999 C100.718004,650.506455 100.86257,650.53417 100.991038,650.599879 C105.178868,652.878589 110.339431,652.339988 113.965602,649.245741 C117.591772,646.151493 118.931995,641.14291 117.335157,636.65328 C116.17147,633.337616 113.547287,630.740302 110.218087,629.609083 C106.888887,628.477864 103.224082,628.938261 100.278739,630.857731 C97.1339622,632.879153 95.3944014,635.832607 95.0479429,639.553475 C94.8386804,641.803614 95.3176909,644.064236 96.4216629,646.03655 C96.4791685,646.138292 96.5076593,646.253839 96.5040377,646.370629 Z" id="Path"></path>
        </g>
    </g>
</svg>