<?xml version="1.0" encoding="UTF-8" standalone="no" ?>
<svg width="14px" height="17px" viewBox="0 0 14 17" version="1.1" xmlns="http://www.w3.org/2000/svg" xmlns:xlink="http://www.w3.org/1999/xlink">
    <g id="Page-1" stroke="none" stroke-width="1" fill="none" fill-rule="evenodd">
        <g id="Chat1" transform="translate(-66.000000, -183.000000)" fill="currentColor">
            <g id="Group-2" transform="translate(66.400000, 183.200000)">
                <path d="M12.5846147,5.42498313 L8.85395368,1.76495422 C8.51017263,1.42768193 7.93720421,1.42768193 7.59342316,1.76495422 C7.24964211,2.10222651 7.24964211,2.66434699 7.59342316,3.00161928 L9.79616842,5.17515181 L1.64728421,5.17515181 C1.15071158,5.17515181 0.756,5.56239036 0.756,6.04956145 C0.756,6.53673253 1.15071158,6.92397108 1.64728421,6.92397108 L9.79616842,6.92397108 L7.59342316,9.08501205 C7.24964211,9.42228434 7.24964211,9.98440482 7.59342316,10.3216771 C7.77168,10.496559 8.00086737,10.584 8.23005474,10.584 C8.45924211,10.584 8.68842947,10.496559 8.86668632,10.3216771 L12.5846147,6.67413976 C12.7501389,6.5117494 12.852,6.2869012 12.852,6.04956145 C12.852,5.81222169 12.7628716,5.58737349 12.5846147,5.42498313 Z" id="Path" fill-rule="nonzero" transform="translate(6.804000, 6.048000) rotate(-270.000000) translate(-6.804000, -6.048000) "></path>
                <rect id="Rectangle" x="0" y="14.364" width="13.608" height="2.268" rx="1.134"></rect>
            </g>
        </g>
    </g>
</svg>