<?xml version="1.0" encoding="UTF-8" standalone="no" ?>
<svg width="14px" height="14px" viewBox="0 0 14 14" version="1.1" xmlns="http://www.w3.org/2000/svg" xmlns:xlink="http://www.w3.org/1999/xlink">
    <g id="Page-1" stroke="none" stroke-width="1" fill="none" fill-rule="evenodd">
        <g id="Chat" transform="translate(-272.000000, -66.000000)" fill="currentColor" fill-rule="nonzero">
            <g id="noun_QR-Code_1653234-2" transform="translate(272.000000, 66.000000)">
                <g id="noun_QR-Code_1653234">
                    <path d="M8.3952,5.28 L12.9712,5.28 C13.1648,5.28 13.3232,5.1216 13.3232,4.928 L13.3232,0.352 C13.3232,0.1584 13.1648,0 12.9712,0 L8.3952,0 C8.2016,0 8.0432,0.1584 8.0432,0.352 L8.0432,4.928 C8.0432,5.1216 8.2016,5.28 8.3952,5.28 Z M9.3632,1.32 L12.0032,1.32 L12.0032,3.96 L9.3632,3.96 L9.3632,1.32 Z" id="Shape"></path>
                    <path d="M5.0512,5.9312 L2.4464,5.9312 C2.2528,5.9312 2.0944,6.0896 2.0944,6.2832 L2.0944,6.8992 C2.0944,7.0928 2.2528,7.2512 2.4464,7.2512 L5.0336,7.2512 C5.2272,7.2512 5.3856,7.0928 5.3856,6.8992 L5.3856,6.2832 C5.4032,6.1072 5.2448,5.9488 5.0512,5.9312 C5.0512,5.9312 5.0512,5.9312 5.0512,5.9312 Z" id="Path"></path>
                    <path d="M12.9712,7.92 L12.3552,7.92 C12.1616,7.92 12.0032,8.0784 12.0032,8.272 L12.0032,10.56 L10.6832,10.56 L10.6832,9.592 C10.6832,9.3984 10.5248,9.24 10.3312,9.24 L9.7152,9.24 C9.5216,9.24 9.3632,9.3984 9.3632,9.592 L9.3632,10.56 L8.3952,10.56 C8.2016,10.56 8.0432,10.7184 8.0432,10.912 L8.0432,11.528 C8.0432,11.7216 8.2016,11.88 8.3952,11.88 L9.3632,11.88 L9.3632,12.848 C9.3632,13.0416 9.5216,13.2 9.7152,13.2 L10.3312,13.2 C10.5248,13.2 10.6832,13.0416 10.6832,12.848 L10.6832,11.88 L12.0032,11.88 L12.0032,12.848 C12.0032,13.0416 12.1616,13.2 12.3552,13.2 L12.9712,13.2 C13.1648,13.2 13.3232,13.0416 13.3232,12.848 L13.3232,8.272 C13.3056,8.0784 13.1648,7.92 12.9712,7.92 Z" id="Path"></path>
                    <path d="M6.4064,7.2512 L10.3312,7.2512 C10.5248,7.2512 10.6832,7.0928 10.6832,6.8992 L10.6832,6.2832 C10.6832,6.0896 10.5248,5.9312 10.3312,5.9312 L7.3744,5.9312 L7.3744,3.6432 C7.3744,3.4496 7.216,3.2912 7.0224,3.2912 L6.4064,3.2912 C6.2128,3.2912 6.0544,3.4496 6.0544,3.6432 L6.0544,6.8992 C6.0544,7.0928 6.2128,7.2512 6.4064,7.2512 C6.4064,7.2512 6.4064,7.2512 6.4064,7.2512 Z" id="Path"></path>
                    <path d="M12.9712,5.9312 L12.3552,5.9312 C12.1616,5.9312 12.0032,6.0896 12.0032,6.2832 L12.0032,6.8992 C12.0032,7.0928 12.1616,7.2512 12.3552,7.2512 L12.9712,7.2512 C13.1648,7.2512 13.3232,7.0928 13.3232,6.8992 L13.3232,6.2832 C13.3232,6.1072 13.1648,5.9488 12.9712,5.9312 C12.9712,5.9312 12.9712,5.9312 12.9712,5.9312 Z" id="Path"></path>
                    <path d="M10.9824,1.9712 L10.3664,1.9712 C10.1728,1.9712 10.0144,2.1296 10.0144,2.3232 L10.0144,2.9392 C10.0144,3.1328 10.1728,3.2912 10.3664,3.2912 L10.9824,3.2912 C11.176,3.2912 11.3344,3.1328 11.3344,2.9392 L11.3344,2.3232 C11.3344,2.1472 11.176,1.9888 10.9824,1.9712 C10.9824,1.9712 10.9824,1.9712 10.9824,1.9712 Z" id="Path"></path>
                    <path d="M6.4064,2.64 L7.0224,2.64 C7.216,2.64 7.3744,2.4816 7.3744,2.288 L7.3744,0.352 C7.3744,0.1584 7.216,0 7.0224,0 L6.4064,0 C6.2128,0 6.0544,0.1584 6.0544,0.352 L6.0544,2.288 C6.0544,2.4816 6.2128,2.64 6.4064,2.64 Z" id="Path"></path>
                    <path d="M0.4752,7.2512 L1.0912,7.2512 C1.2848,7.2512 1.4432,7.0928 1.4432,6.8992 L1.4432,6.2832 C1.4432,6.0896 1.2848,5.9312 1.0912,5.9312 L0.4752,5.9312 C0.2816,5.9312 0.1232,6.0896 0.1232,6.2832 L0.1232,6.8992 C0.1232,7.0928 0.2816,7.2512 0.4752,7.2512 C0.4752,7.2512 0.4752,7.2512 0.4752,7.2512 Z" id="Path"></path>
                    <path d="M6.4064,9.24 L8.9936,9.24 C9.1872,9.24 9.3456,9.0816 9.3456,8.888 L9.3456,8.272 C9.3456,8.0784 9.1872,7.92 8.9936,7.92 L6.4064,7.92 C6.2128,7.92 6.0544,8.0784 6.0544,8.272 L6.0544,8.888 C6.0544,9.0816 6.2128,9.24 6.4064,9.24 C6.4064,9.24 6.4064,9.24 6.4064,9.24 Z" id="Path"></path>
                    <path d="M0.4752,13.2 L5.0512,13.2 C5.2448,13.2 5.4032,13.0416 5.4032,12.848 L5.4032,8.272 C5.4032,8.0784 5.2448,7.92 5.0512,7.92 L0.4752,7.92 C0.2816,7.92 0.1232,8.0784 0.1232,8.272 L0.1232,12.848 C0.1232,13.0416 0.2816,13.2 0.4752,13.2 C0.4752,13.2 0.4752,13.2 0.4752,13.2 Z M1.4432,9.24 L4.0832,9.24 L4.0832,11.88 L1.4432,11.88 L1.4432,9.24 L1.4432,9.24 Z" id="Shape"></path>
                    <path d="M3.0624,9.8912 L2.4464,9.8912 C2.2528,9.8912 2.0944,10.0496 2.0944,10.2432 L2.0944,10.8592 C2.0944,11.0528 2.2528,11.2112 2.4464,11.2112 L3.0624,11.2112 C3.256,11.2112 3.4144,11.0528 3.4144,10.8592 L3.4144,10.2432 C3.4144,10.0672 3.256,9.9088 3.0624,9.8912 C3.0624,9.8912 3.0624,9.8912 3.0624,9.8912 Z" id="Path"></path>
                    <path d="M6.4064,13.2 L7.0224,13.2 C7.216,13.2 7.3744,13.0416 7.3744,12.848 L7.3744,12.232 C7.3744,12.0384 7.216,11.88 7.0224,11.88 L6.4064,11.88 C6.2128,11.88 6.0544,12.0384 6.0544,12.232 L6.0544,12.848 C6.0544,13.0416 6.2128,13.2 6.4064,13.2 Z" id="Path"></path>
                    <path d="M0.4752,5.28 L5.0512,5.28 C5.2448,5.28 5.4032,5.1216 5.4032,4.928 L5.4032,0.352 C5.4032,0.1584 5.2448,0 5.0512,0 L0.4752,0 C0.2816,0 0.1232,0.1584 0.1232,0.352 L0.1232,4.928 C0.1232,5.1216 0.2816,5.28 0.4752,5.28 C0.4752,5.28 0.4752,5.28 0.4752,5.28 Z M1.4432,1.32 L4.0832,1.32 L4.0832,3.96 L1.4432,3.96 L1.4432,1.32 L1.4432,1.32 Z" id="Shape"></path>
                    <path d="M3.0624,1.9712 L2.4464,1.9712 C2.2528,1.9712 2.0944,2.1296 2.0944,2.3232 L2.0944,2.9392 C2.0944,3.1328 2.2528,3.2912 2.4464,3.2912 L3.0624,3.2912 C3.256,3.2912 3.4144,3.1328 3.4144,2.9392 L3.4144,2.3232 C3.4144,2.1472 3.256,1.9888 3.0624,1.9712 C3.0624,1.9712 3.0624,1.9712 3.0624,1.9712 Z" id="Path"></path>
                </g>
            </g>
        </g>
    </g>
</svg>