<?xml version="1.0" encoding="UTF-8" standalone="no" ?>
<svg width="17px" height="15px" viewBox="0 0 17 15" version="1.1" xmlns="http://www.w3.org/2000/svg" xmlns:xlink="http://www.w3.org/1999/xlink">
    <g id="Page-1" stroke="none" stroke-width="1" fill="none" fill-rule="evenodd">
        <g id="Chat" transform="translate(-217.000000, -64.000000)" fill="currentColor">
            <g id="Group" transform="translate(217.000000, 64.000000)" fill-rule="nonzero">
                <g id="Shape">
                    <path d="M11.88,13.695 C11.88,14.0595079 11.5845079,14.355 11.22,14.355 C10.8554921,14.355 10.56,14.0595079 10.56,13.695 C10.56,11.4684432 8.92022465,10.395 5.94,10.395 C2.95977535,10.395 1.32,11.4684432 1.32,13.695 C1.32,14.0595079 1.02450793,14.355 0.66,14.355 C0.295492065,14.355 0,14.0595079 0,13.695 C0,10.5929928 2.31886255,9.075 5.94,9.075 C9.56113745,9.075 11.88,10.5929928 11.88,13.695 Z M5.94,8.415 C4.00445311,8.415 2.64,6.30828614 2.64,4.125 C2.64,2.00785071 3.9923864,0.165 5.94,0.165 C7.8876136,0.165 9.24,2.00785071 9.24,4.125 C9.24,6.30828614 7.87554689,8.415 5.94,8.415 Z M5.94,7.095 C6.9960627,7.095 7.92,5.66844198 7.92,4.125 C7.92,2.66414009 7.05468139,1.485 5.94,1.485 C4.82531861,1.485 3.96,2.66414009 3.96,4.125 C3.96,5.66844198 4.8839373,7.095 5.94,7.095 Z"></path>
                </g>
            </g>
            <g id="Group-2" transform="translate(228.000000, 67.000000)">
                <rect id="Rectangle" x="0" y="2.31" width="5.61" height="1.32" rx="0.66"></rect>
                <rect id="Rectangle" transform="translate(2.805000, 2.970000) rotate(-90.000000) translate(-2.805000, -2.970000) " x="0" y="2.31" width="5.61" height="1.32" rx="0.66"></rect>
            </g>
        </g>
    </g>
</svg>