<?xml version="1.0" encoding="UTF-8" standalone="no" ?>
<svg width="19px" height="22px" viewBox="0 0 19 22" version="1.1" xmlns="http://www.w3.org/2000/svg" xmlns:xlink="http://www.w3.org/1999/xlink">
    <g id="Page-1" stroke="none" stroke-width="1" fill="none" fill-rule="evenodd">
        <g id="Enter-address" transform="translate(-324.000000, -127.000000)" fill="currentColor" fill-rule="nonzero">
            <g id="noun_paste_2131230" transform="translate(324.000000, 127.000000)">
                <path d="M15.8745098,2.09032256 L14.0705883,2.09032256 L14.0705883,1.74193547 C14.0705883,1.35711771 13.747531,1.04516128 13.3490197,1.04516128 L10.8235295,1.04516128 L10.8235295,0.696774188 C10.8235295,0.31195643 10.5004722,0 10.1019609,0 C9.70344951,0 9.38039224,0.31195643 9.38039224,0.696774188 L9.38039224,1.04516128 L6.85490207,1.04516128 C6.45639072,1.04516128 6.13333345,1.35711771 6.13333345,1.74193547 L6.13333345,2.09032256 L4.32941189,2.09032256 C2.93462218,2.09032256 1.80392172,3.18217007 1.80392172,4.52903222 L1.80392172,5.32683867 C0.733378521,5.63504553 -0.000286450493,6.58579198 8.39001437e-08,7.66451607 L8.39001437e-08,19.1612902 C8.39001437e-08,20.5081523 1.13070063,21.5999999 2.52549034,21.5999999 L12.9882353,21.5999999 C14.1053454,21.6002766 15.0899238,20.8918217 15.4090981,19.8580644 L15.8745098,19.8580644 C17.2692995,19.8580644 18.4,18.7662169 18.4,17.4193547 L18.4,4.52903222 C18.4,3.18217007 17.2692995,2.09032256 15.8745098,2.09032256 Z M7.57647069,2.43870966 L12.627451,2.43870966 L12.627451,3.13548385 L7.57647069,3.13548385 L7.57647069,2.43870966 Z M14.0705883,19.1612902 C14.0705883,19.7385168 13.5860024,20.2064515 12.9882353,20.2064515 L2.52549034,20.2064515 C1.92772332,20.2064515 1.44313741,19.7385168 1.44313741,19.1612902 L1.44313741,7.66451607 C1.44313741,7.08728943 1.92772332,6.61935479 2.52549034,6.61935479 L12.9882353,6.61935479 C13.5860024,6.61935479 14.0705883,7.08728943 14.0705883,7.66451607 L14.0705883,19.1612902 Z M16.9568628,17.4193547 C16.9568628,17.9965813 16.4722768,18.464516 15.8745098,18.464516 L15.5137255,18.464516 L15.5137255,7.66451607 C15.5137255,6.31765392 14.3830251,5.22580641 12.9882353,5.22580641 L3.24705896,5.22580641 L3.24705896,4.52903222 C3.24705896,3.95180559 3.73164488,3.48387094 4.32941189,3.48387094 L6.13333345,3.48387094 L6.13333345,3.83225804 C6.13333345,4.21707579 6.45639072,4.52903222 6.85490207,4.52903222 L13.3490197,4.52903222 C13.747531,4.52903222 14.0705883,4.21707579 14.0705883,3.83225804 L14.0705883,3.48387094 L15.8745098,3.48387094 C16.4722768,3.48387094 16.9568628,3.95180559 16.9568628,4.52903222 L16.9568628,17.4193547 Z" id="Shape"></path>
                <path d="M12.0888889,8 L3.91111111,8 C3.51837529,8 3.2,8.3581722 3.2,8.8 C3.2,9.2418278 3.51837529,9.6 3.91111111,9.6 L12.0888889,9.6 C12.4816247,9.6 12.8,9.2418278 12.8,8.8 C12.8,8.3581722 12.4816247,8 12.0888889,8 Z" id="Path"></path>
                <path d="M12.0888889,11.2 L3.91111111,11.2 C3.51837529,11.2 3.2,11.5581722 3.2,12 C3.2,12.4418278 3.51837529,12.8 3.91111111,12.8 L12.0888889,12.8 C12.4816247,12.8 12.8,12.4418278 12.8,12 C12.8,11.5581722 12.4816247,11.2 12.0888889,11.2 Z" id="Path"></path>
                <path d="M8.1,13.6 L3.9,13.6 C3.51340068,13.6 3.2,13.9581722 3.2,14.4 C3.2,14.8418278 3.51340068,15.2 3.9,15.2 L8.1,15.2 C8.48659932,15.2 8.8,14.8418278 8.8,14.4 C8.8,13.9581722 8.48659932,13.6 8.1,13.6 Z" id="Path"></path>
            </g>
        </g>
    </g>
</svg>